<svg xmlns="http://www.w3.org/2000/svg" xmlns:xlink="http://www.w3.org/1999/xlink" viewBox="0 0 188.97 145.21"><defs><style>.a{fill:url(#a);}</style><linearGradient id="a" x1="4.19" y1="139.7" x2="185.13" y2="5.25" gradientUnits="userSpaceOnUse"><stop offset="0" stop-color="#9300ff"/><stop offset="1" stop-color="#1e62f5"/></linearGradient></defs><title>Risorsa 1</title><path class="a" d="M183.57,1.46a10.69,10.69,0,0,0-10.8,0L94.49,46.66,16.2,1.46a10.69,10.69,0,0,0-10.8,0A10.69,10.69,0,0,0,0,10.82V134.39a10.69,10.69,0,0,0,5.4,9.35,10.69,10.69,0,0,0,10.8,0l78.28-45.2,78.28,45.2a10.8,10.8,0,0,0,16.2-9.36V10.82A10.69,10.69,0,0,0,183.57,1.46ZM13,130.58v-116L81.48,54.17,65.75,63.25a10.8,10.8,0,0,0,0,18.71h0L81.49,91ZM94.49,61.67,113.42,72.6,94.49,83.53,75.55,72.6ZM176,130.58,107.48,91,123.22,82a10.8,10.8,0,0,0,0-18.71h0l-15.73-9.08L176,14.63Z"/></svg>